<?xml version="1.0" encoding="utf-8"?>
<!-- Generator: Adobe Illustrator 24.0.2, SVG Export Plug-In . SVG Version: 6.00 Build 0)  -->
<svg version="1.1" id="Layer_1" xmlns="http://www.w3.org/2000/svg" xmlns:xlink="http://www.w3.org/1999/xlink" x="0px" y="0px"
	 viewBox="0 0 48 48" style="enable-background:new 0 0 48 48;" xml:space="preserve">
<title>159 arrow left small</title>
<g>
	<g>
		<g>
			<path d="M24,2.1c12.1,0,22,9.9,22,22C46,36.2,36.1,46,24,46S2,36.2,2,24.1C2,12,11.9,2.1,24,2.1 M24,0.1c-13.2,0-24,10.8-24,24
				S10.8,48,24,48s24-10.8,24-23.9S37.2,0.1,24,0.1L24,0.1z"/>
		</g>
	</g>
	<path d="M23.9,21.6l4.3,2.1c-0.1,2.1-0.4,3.7-1,4.8c-0.7,1.3-1.5,2-2.7,2.6c-1.7,0.8-4.4,1-7.4,1.1c0.2-0.3,0.5-0.7,0.7-1
		c0.7-1.6,0.9-3.2,1.3-4.7c0.3-1.5,0.8-2.7,1.5-3.6C21.1,22.2,22,21.7,23.9,21.6 M29.6,13l3.1,1.6L29,21.2l-3-1.5L29.6,13z
		 M28.5,9.4L23.4,19c-2.2,0.2-3.9,1-5,2.2c-1.2,1.4-1.7,3.1-2.1,4.7s-0.7,3.2-1.1,4.3c-0.5,1.1-1,1.8-2,2.2H9.4v2.7h4l0,0
		c4.7,0,8.9,0.1,12.2-1.5c1.7-0.8,3.1-2,4-3.8c0.9-1.7,1.3-3.8,1.3-6.5l5.5-9.8l-1.2-0.6L28.5,9.4z"/>
</g>
</svg>
