<?xml version="1.0" encoding="utf-8"?>
<!-- Generator: Adobe Illustrator 24.0.2, SVG Export Plug-In . SVG Version: 6.00 Build 0)  -->
<svg version="1.1" id="Layer_1" xmlns="http://www.w3.org/2000/svg" xmlns:xlink="http://www.w3.org/1999/xlink" x="0px" y="0px"
	 viewBox="0 0 500 500" style="enable-background:new 0 0 500 500;" xml:space="preserve">
<path d="M438.8,119c-5-13-11.8-23.9-22.8-35c-11-11-22-17.7-35-22.8c-12.5-4.9-26.9-8.1-48-9.1c-21-1-27.8-1-81.4-1
	s-60.4-0.2-81.4,1.6l0,0c-21,0-35.4,3.9-48,8.7c-13,5-24,11.5-35,22.4s-17.8,22-22.8,35c-4.9,12.5-8.2,26.9-9.2,48
	c-1,21.1-1.2,27.8-1.2,81.5c0,53.6,0.3,60.4,1.2,81.4c1,21,4.3,35.4,9.2,48c5,13,11.8,24,22.8,35c11,11,22,17.8,35,22.8
	c12.5,4.9,26.9,8.2,48,9.2c21.1,1,27.8,1.2,81.4,1.2s60.4-0.3,81.4-1.2c21-1,35.4-4.3,48-9.2c13-5,24-11.8,35-22.8
	c11-11,17.8-22,22.8-35c4.9-12.5,8.2-26.9,9.2-48c1-21.1,1.1-27.8,1.1-81.4S448.9,188,448,167C447,146,443.7,131.6,438.8,119
	 M412.4,328.3c-0.9,19.3-4.1,29.8-6.8,36.6c-3.6,9.2-7.9,15.8-14.7,22.7c-6.9,6.9-13.5,11.2-22.7,14.7c-7,2.7-17.4,5.9-36.6,6.8
	c-20.8,1-26.8,1.1-79.6,1.1s-59.2-0.2-79.5-1.1l0,0c-19.4-0.9-30-4.1-37-6.8c-9.2-3.6-16-7.9-22.9-14.7
	c-6.9-6.9-11.2-13.5-14.8-22.7c-2.7-7-5.9-17.4-6.8-36.6c-1-20.8-1.1-27.1-1.1-79.8s0.2-59,1.1-79.8c0.9-19.3,4.1-29.7,6.8-36.6
	c3.6-9.2,7.9-15.8,14.7-22.7S126,98,135.2,94.5c7-2.7,17.4-5.9,36.6-6.8c20.8-1,27.1-1.1,79.8-1.1s59,0.2,79.8,1.1
	c19.3,0.9,29.7,4.2,36.6,6.8c9.2,3.5,15.8,7.9,22.7,14.7c6.9,6.9,11.2,13.5,14.7,22.7c2.7,7,5.9,17.4,6.8,36.6
	c1,20.8,1.1,27.1,1.1,79.8C413.6,301.1,413.4,307.4,412.4,328.3"/>
<path d="M251.7,146.8c-56,0-101.4,45.7-101.4,101.3l0,0c0,56.5,45.4,101.6,101.4,101.6s101.4-45.4,101.4-101.4
	S307.7,146.8,251.7,146.8 M251.7,314.2c-36.4,0-65.8-29.5-65.8-65.9s29.5-65.9,65.8-65.9s65.9,29.5,65.9,65.9
	C317.5,284.7,288,314.2,251.7,314.2"/>
<path d="M357.1,119.1L357.1,119.1c-13.1,0-23.7,10.7-23.7,23.8c0,13.1,10.6,23.8,23.7,23.8s23.7-10.6,23.7-23.8
	C380.8,129.8,370.2,119.1,357.1,119.1"/>
</svg>
