<?xml version="1.0" encoding="utf-8"?>
<!-- Generator: Adobe Illustrator 24.0.2, SVG Export Plug-In . SVG Version: 6.00 Build 0)  -->
<svg version="1.1" id="b2f45786-e721-4cf9-b45d-72fb10e916b4"
	 xmlns="http://www.w3.org/2000/svg" xmlns:xlink="http://www.w3.org/1999/xlink" x="0px" y="0px" viewBox="0 0 64 64"
	 style="enable-background:new 0 0 64 64;" xml:space="preserve">
<style type="text/css">
	.st0{fill:none;}
</style>
<title>sharebuttons</title>
<polyline class="st0" points="64,64 0,64 0,0 "/>
<path d="M32,6C17.4,5.9,5.5,17.8,5.5,32.4C5.4,47,17.3,58.9,31.9,59s26.5-11.8,26.6-26.4c0,0,0,0,0-0.1C58.4,17.9,46.6,6,32,6z
	 M38.6,23.6h-2.9c-1.2,0-1.4,0.5-1.4,1.7v2.7h4.4l-0.6,4.4h-3.9v15.5h-6.6V32.5h-4.4v-4.4h4.4V23c0-3.9,2.1-5.9,6.7-5.9h4.4V23.6z"
	/>
</svg>
